<svg id="visual" viewBox="0 0 900 600" width="900" height="600" xmlns="http://www.w3.org/2000/svg" xmlns:xlink="http://www.w3.org/1999/xlink" version="1.1"><path d="M728 600L665 545L611 491L764 436L737 382L638 327L746 273L638 218L683 164L728 109L755 55L647 0L900 0L900 55L900 109L900 164L900 218L900 273L900 327L900 382L900 436L900 491L900 545L900 600Z" fill="#2b867c"></path><path d="M638 600L593 545L539 491L719 436L701 382L566 327L683 273L566 218L593 164L683 109L728 55L584 0L648 0L756 55L729 109L684 164L639 218L747 273L639 327L738 382L765 436L612 491L666 545L729 600Z" fill="#229081"></path><path d="M557 600L557 545L503 491L602 436L647 382L530 327L602 273L458 218L521 164L575 109L683 55L539 0L585 0L729 55L684 109L594 164L567 218L684 273L567 327L702 382L720 436L540 491L594 545L639 600Z" fill="#179a86"></path><path d="M251 600L395 545L377 491L296 436L404 382L386 327L368 273L314 218L341 164L404 109L404 55L431 0L540 0L684 55L576 109L522 164L459 218L603 273L531 327L648 382L603 436L504 491L558 545L558 600Z" fill="#08a48a"></path><path d="M206 600L323 545L296 491L251 436L296 382L314 327L296 273L215 218L260 164L341 109L332 55L350 0L432 0L405 55L405 109L342 164L315 218L369 273L387 327L405 382L297 436L378 491L396 545L252 600Z" fill="#00ae8c"></path><path d="M125 600L134 545L170 491L188 436L116 382L188 327L170 273L143 218L206 164L161 109L179 55L152 0L351 0L333 55L342 109L261 164L216 218L297 273L315 327L297 382L252 436L297 491L324 545L207 600Z" fill="#00b88e"></path><path d="M53 600L71 545L125 491L152 436L89 382L107 327L89 273L71 218L134 164L116 109L134 55L125 0L153 0L180 55L162 109L207 164L144 218L171 273L189 327L117 382L189 436L171 491L135 545L126 600Z" fill="#00c28e"></path><path d="M0 600L0 545L0 491L0 436L0 382L0 327L0 273L0 218L0 164L0 109L0 55L0 0L126 0L135 55L117 109L135 164L72 218L90 273L108 327L90 382L153 436L126 491L72 545L54 600Z" fill="#00cc8e"></path></svg>